<svg version="1.1" viewBox="0.0 0.0 501.46456692913387 130.8241469816273" fill="none" stroke="none" stroke-linecap="square" stroke-miterlimit="10" xmlns:xlink="http://www.w3.org/1999/xlink" xmlns="http://www.w3.org/2000/svg"><clipPath id="p.0"><path d="m0 0l501.46457 0l0 130.82414l-501.46457 0l0 -130.82414z" clip-rule="nonzero"/></clipPath><g clip-path="url(#p.0)"><path fill="#000000" fill-opacity="0.0" d="m0 0l501.46457 0l0 130.82414l-501.46457 0z" fill-rule="evenodd"/><path fill="#000000" d="m10.762125 7.1245203l94.614174 0l0 11.905511l-94.614174 0z" fill-rule="evenodd"/><path stroke="#000000" stroke-width="1.0" stroke-linejoin="round" stroke-linecap="butt" d="m10.762125 7.1245203l94.614174 0l0 11.905511l-94.614174 0z" fill-rule="evenodd"/><path fill="#000000" d="m10.762125 40.126488l94.614174 0l0 6.2992096l-94.614174 0z" fill-rule="evenodd"/><path stroke="#000000" stroke-width="1.0" stroke-linejoin="round" stroke-linecap="butt" d="m10.762125 40.126488l94.614174 0l0 6.2992096l-94.614174 0z" fill-rule="evenodd"/><path fill="#000000" d="m10.762125 73.12892l94.614174 0l0 6.2992096l-94.614174 0z" fill-rule="evenodd"/><path stroke="#000000" stroke-width="1.0" stroke-linejoin="round" stroke-linecap="butt" d="m10.762125 73.12892l94.614174 0l0 6.2992096l-94.614174 0z" fill-rule="evenodd"/><path fill="#000000" d="m61.222786 7.476588l0 71.968506l-6.2992134 0l0 -71.968506z" fill-rule="evenodd"/><path stroke="#000000" stroke-width="1.0" stroke-linejoin="round" stroke-linecap="butt" d="m61.222786 7.476588l0 71.968506l-6.2992134 0l0 -71.968506z" fill-rule="evenodd"/><path fill="#000000" d="m87.90502 7.300568l0 71.968506l-6.2992096 0l0 -71.968506z" fill-rule="evenodd"/><path stroke="#000000" stroke-width="1.0" stroke-linejoin="round" stroke-linecap="butt" d="m87.90502 7.300568l0 71.968506l-6.2992096 0l0 -71.968506z" fill-rule="evenodd"/><path fill="#000000" d="m33.467037 7.300568l0 71.968506l-6.2992134 0l0 -71.968506z" fill-rule="evenodd"/><path stroke="#000000" stroke-width="1.0" stroke-linejoin="round" stroke-linecap="butt" d="m33.467037 7.300568l0 71.968506l-6.2992134 0l0 -71.968506z" fill-rule="evenodd"/><path fill="#000000" fill-opacity="0.0" d="m121.19685 10.027001l421.54333 0l0 72.314964l-421.54333 0z" fill-rule="evenodd"/><path fill="#000000" d="m133.27498 80.467l0 -1.03125l4.03125 -2.046875l0 -37.625l-3.84375 -3.328125l0 -0.453125l8.578125 -3.515625l0.375 0l0 23.296875l0.265625 0q2.421875 -2.4375 4.6875 -3.578125q2.28125 -1.15625 5.03125 -1.15625q3.78125 0 6.171875 1.890625q2.40625 1.890625 2.40625 5.59375l0 18.875l4.03125 2.046875l0 1.03125l-13.6875 0l0 -1.03125l4.53125 -1.84375l0 -16.0625q0 -2.828125 -1.765625 -4.296875q-1.75 -1.46875 -4.5625 -1.46875q-1.734375 0 -3.8125 0.578125q-2.078125 0.578125 -3.296875 1.65625l0 19.59375l4.546875 1.84375l0 1.03125l-13.6875 0zm51.451065 0.640625q-4.21875 0 -7.390625 -1.984375q-3.171875 -1.984375 -4.9375 -5.375q-1.75 -3.390625 -1.75 -7.6875q0 -4.28125 1.75 -7.671875q1.765625 -3.390625 4.9375 -5.375q3.171875 -1.984375 7.390625 -1.984375q4.21875 0 7.390625 1.984375q3.171875 1.984375 4.921875 5.375q1.765625 3.390625 1.765625 7.671875q0 4.296875 -1.765625 7.6875q-1.75 3.390625 -4.921875 5.375q-3.171875 1.984375 -7.390625 1.984375zm0.890625 -2.75q2.5625 0 4.21875 -1.59375q1.671875 -1.609375 2.4375 -4.140625q0.765625 -2.53125 0.765625 -5.28125q0 -3.390625 -0.921875 -6.515625q-0.921875 -3.140625 -2.9375 -5.125q-2.015625 -1.984375 -5.21875 -1.984375q-2.625 0 -4.296875 1.609375q-1.65625 1.59375 -2.46875 4.09375q-0.796875 2.484375 -0.796875 5.296875q0 3.390625 0.953125 6.53125q0.96875 3.140625 3.015625 5.125q2.046875 1.984375 5.25 1.984375zm19.466187 2.109375l0 -1.03125l4.03125 -2.046875l0 -37.625l-3.84375 -3.328125l0 -0.453125l8.578125 -3.515625l0.375 0l0 31.6875l10.3125 -8.78125l0 -0.375l-3.140625 -2.3125l0 -1.015625l12.15625 0l0 1.015625l-4.09375 2.25l-10.5625 8.125l12.9375 14.203125l4.09375 2.171875l0 1.03125l-8.453125 0l-2.421875 -3.328125l-10.828125 -12.03125l0 12.484375l4.546875 1.84375l0 1.03125l-13.6875 0zm46.40007 0.640625q-3.78125 0 -6.1875 -1.890625q-2.390625 -1.890625 -2.390625 -5.59375l0 -18.953125l-4.03125 -1.984375l0 -1.015625l9.140625 0l0 18.9375q0 2.8125 1.765625 4.296875q1.765625 1.46875 4.578125 1.46875q1.7343597 0 3.8124847 -0.578125q2.078125 -0.578125 3.296875 -1.671875l0 -19.453125l-4.546875 -1.984375l0 -1.015625l9.65625 0l0 25.921875l4.546875 1.84375l0 1.03125l-9.65625 0l0 -4.03125l-0.328125 0q-2.4375 2.4375 -4.703125 3.5625q-2.2656097 1.109375 -4.9531097 1.109375zm38.778946 0q-4.21875 0 -7.390625 -1.984375q-3.171875 -1.984375 -4.9375 -5.375q-1.75 -3.390625 -1.75 -7.6875q0 -4.28125 1.75 -7.671875q1.765625 -3.390625 4.9375 -5.375q3.171875 -1.984375 7.390625 -1.984375q4.21875 0 7.390625 1.984375q3.171875 1.984375 4.921875 5.375q1.765625 3.390625 1.765625 7.671875q0 4.296875 -1.765625 7.6875q-1.75 3.390625 -4.921875 5.375q-3.171875 1.984375 -7.390625 1.984375zm0.890625 -2.75q2.5625 0 4.21875 -1.59375q1.671875 -1.609375 2.4375 -4.140625q0.765625 -2.53125 0.765625 -5.28125q0 -3.390625 -0.921875 -6.515625q-0.921875 -3.140625 -2.9375 -5.125q-2.015625 -1.984375 -5.21875 -1.984375q-2.625 0 -4.296875 1.609375q-1.65625 1.59375 -2.46875 4.09375q-0.796875 2.484375 -0.796875 5.296875q0 3.390625 0.953125 6.53125q0.96875 3.140625 3.015625 5.125q2.046875 1.984375 5.25 1.984375zm19.466187 2.109375l0 -1.03125l4.03125 -2.046875l0 -19.0625l-3.84375 -3.328125l0 -0.453125l7.9375 -3.515625l0.375 0l0.578125 4.734375l0.328125 0q2.421875 -2.4375 4.6875 -3.578125q2.28125 -1.15625 5.03125 -1.15625q3.78125 0 6.171875 1.890625q2.40625 1.890625 2.40625 5.59375l0 18.875l4.03125 2.046875l0 1.03125l-13.6875 0l0 -1.03125l4.53125 -2.046875l0 -15.859375q0 -2.828125 -1.765625 -4.296875q-1.75 -1.46875 -4.5625 -1.46875q-1.734375 0 -3.8125 0.578125q-2.078125 0.578125 -3.296875 1.65625l0 19.390625l4.546875 2.046875l0 1.03125l-13.6875 0z" fill-rule="nonzero"/><path fill="#000000" d="m370.96033 80.95138q-4.125 0 -6.671875 -2.28125q-2.546875 -2.28125 -2.546875 -6.03125q0 -2.25 1.5625 -4.53125q1.5625 -2.28125 5.171875 -4.6875q-1.78125 -1.859375 -2.625 -3.078125q-0.84375 -1.234375 -1.109375 -2.234375q-0.25 -1.015625 -0.25 -2.3125q0 -1.6875 1.078125 -3.40625q1.078125 -1.734375 3.046875 -2.90625q1.96875 -1.171875 4.5625 -1.171875q3.734375 0 5.796875 1.734375q2.0625 1.71875 2.0625 4.40625q0 2.203125 -2.0625 3.9375q-2.0625 1.71875 -5.609375 3.890625q0.375 0.375 0.765625 0.765625q0.390625 0.375 0.8125 0.8125l7.6875 7.6875q1.390625 -2.125 2.5625 -4.828125q1.171875 -2.71875 2.234375 -5.984375l-4.703125 -1.859375l0 -0.78125l11.421875 0l0 0.78125l-4.078125 1.765625q-1.53125 3.5625 -3.046875 6.609375q-1.515625 3.046875 -3.140625 5.53125l5.21875 5.1875l3.984375 1.734375l0 0.765625l-7.71875 0l-4.21875 -4.21875q-2.078125 2.25 -4.578125 3.484375q-2.484375 1.21875 -5.609375 1.21875zm-2.296875 -26.109375q0 1.578125 0.8125 2.953125q0.8125 1.359375 2.734375 3.328125q2.265625 -1.625 3.5 -3.0625q1.25 -1.453125 1.25 -3.421875q0 -1.921875 -1.171875 -3.046875q-1.171875 -1.125 -2.953125 -1.125q-1.734375 0 -2.953125 1.15625q-1.21875 1.140625 -1.21875 3.21875zm-2.5 16.65625q0 2.015625 0.90625 3.4375q0.921875 1.40625 2.453125 2.15625q1.53125 0.734375 3.3125 0.734375q3.890625 0 7.015625 -2.875l-7.015625 -7.015625q-0.953125 -0.953125 -1.78125 -1.765625q-0.8125 -0.828125 -1.484375 -1.546875q-1.53125 1.203125 -2.25 2.21875q-0.71875 1.0 -0.9375 2.109375q-0.21875 1.09375 -0.21875 2.546875z" fill-rule="nonzero"/><path fill="#000000" d="m426.7266 81.10763q-6.203125 0 -9.796875 -3.765625q-3.578125 -3.78125 -3.578125 -10.0q0 -4.796875 1.953125 -8.46875q1.953125 -3.6875 5.28125 -5.765625q3.328125 -2.078125 7.484375 -2.078125q2.5625 0 4.984375 0.859375q2.4375 0.859375 3.71875 2.28125q1.015625 1.203125 1.015625 1.90625q0 0.90625 -0.828125 1.546875l-2.421875 2.046875l-0.453125 0l-2.171875 -2.953125q-0.96875 -1.28125 -2.40625 -2.078125q-1.4375 -0.796875 -3.546875 -0.796875q-3.53125 0 -5.546875 2.78125q-2.015625 2.78125 -2.015625 7.78125q0 3.078125 1.015625 5.796875q1.03125 2.71875 3.4375 4.421875q2.40625 1.6875 6.625 1.6875q3.515625 0 8.25 -2.5625l0.203125 0l0 0.640625q-1.484375 2.75 -4.390625 4.734375q-2.90625 1.984375 -6.8125 1.984375zm31.35907 0q-4.21875 0 -7.390625 -1.984375q-3.171875 -1.984375 -4.9375 -5.375q-1.75 -3.390625 -1.75 -7.6875q0 -4.28125 1.75 -7.671875q1.765625 -3.390625 4.9375 -5.375q3.171875 -1.984375 7.390625 -1.984375q4.21875 0 7.390625 1.984375q3.171875 1.984375 4.921875 5.375q1.765625 3.390625 1.765625 7.671875q0 4.296875 -1.765625 7.6875q-1.75 3.390625 -4.921875 5.375q-3.171875 1.984375 -7.390625 1.984375zm0.890625 -2.75q2.5625 0 4.21875 -1.59375q1.671875 -1.609375 2.4375 -4.140625q0.765625 -2.53125 0.765625 -5.28125q0 -3.390625 -0.921875 -6.515625q-0.921875 -3.140625 -2.9375 -5.125q-2.015625 -1.984375 -5.21875 -1.984375q-2.625 0 -4.296875 1.609375q-1.65625 1.59375 -2.46875 4.09375q-0.796875 2.484375 -0.796875 5.296875q0 3.390625 0.953125 6.53125q0.96875 3.140625 3.015625 5.125q2.046875 1.984375 5.25 1.984375zm23.748077 2.421875q-1.59375 0 -2.75 -1.140625q-1.15625 -1.15625 -1.15625 -2.75q0 -1.609375 1.15625 -2.75q1.15625 -1.15625 2.75 -1.15625q1.59375 0 2.75 1.15625q1.15625 1.140625 1.15625 2.75q0 1.59375 -1.15625 2.75q-1.15625 1.140625 -2.75 1.140625z" fill-rule="nonzero"/><path fill="#000000" fill-opacity="0.0" d="m0 88.28346l501.66928 0l0 72.31496l-501.66928 0z" fill-rule="evenodd"/><path fill="#000000" d="m13.609375 120.32346l0 -0.390625l2.40625 -0.953125l0 -13.171875l-3.921875 0l-1.625 3.53125l-0.390625 0l0 -4.859375l14.015625 0l0 4.859375l-0.375 0l-1.640625 -3.53125l-3.90625 0l0 13.171875l2.390625 0.953125l0 0.390625l-6.953125 0zm16.585327 0.234375q-2.328125 0 -3.671875 -1.40625q-1.34375 -1.421875 -1.34375 -3.75q0 -1.796875 0.703125 -3.171875q0.703125 -1.390625 1.859375 -2.171875q1.171875 -0.78125 2.546875 -0.78125q1.890625 0 2.984375 1.328125q1.09375 1.3125 1.09375 3.796875l-0.125 0.109375l-7.171875 0q0.03125 1.109375 0.4375 2.078125q0.40625 0.96875 1.296875 1.578125q0.90625 0.59375 2.421875 0.59375q1.3125 0 3.09375 -0.953125l0.078125 0l0 0.234375q-0.5625 1.03125 -1.65625 1.78125q-1.078125 0.734375 -2.546875 0.734375zm-0.296875 -10.21875q-1.140625 0 -1.875 0.8125q-0.734375 0.796875 -0.90625 2.265625l5.421875 0q-0.265625 -1.640625 -0.921875 -2.359375q-0.65625 -0.71875 -1.71875 -0.71875zm11.912842 10.21875q-2.328125 0 -3.671875 -1.40625q-1.34375 -1.421875 -1.34375 -3.75q0 -1.796875 0.71875 -3.171875q0.734375 -1.390625 1.984375 -2.171875q1.25 -0.78125 2.8125 -0.78125q0.96875 0 1.875 0.328125q0.90625 0.328125 1.390625 0.859375q0.390625 0.453125 0.390625 0.71875q0 0.328125 -0.3125 0.578125l-0.921875 0.765625l-0.171875 0l-0.8125 -1.109375q-0.359375 -0.484375 -0.90625 -0.78125q-0.53125 -0.296875 -1.328125 -0.296875q-1.3125 0 -2.078125 1.046875q-0.75 1.046875 -0.75 2.90625q0 1.15625 0.375 2.1875q0.390625 1.015625 1.28125 1.65625q0.90625 0.625 2.5 0.625q1.3125 0 3.09375 -0.953125l0.078125 0l0 0.234375q-0.5625 1.03125 -1.65625 1.78125q-1.078125 0.734375 -2.546875 0.734375zm6.4334717 -0.234375l0 -0.390625l1.5 -0.765625l0 -14.109375l-1.4375 -1.25l0 -0.171875l3.21875 -1.3125l0.140625 0l0 8.734375l0.109375 0q0.90625 -0.90625 1.75 -1.34375q0.859375 -0.4375 1.890625 -0.4375q1.421875 0 2.3125 0.71875q0.90625 0.703125 0.90625 2.09375l0 7.078125l1.515625 0.765625l0 0.390625l-5.140625 0l0 -0.390625l1.703125 -0.6875l0 -6.03125q0 -1.046875 -0.671875 -1.59375q-0.65625 -0.5625 -1.703125 -0.5625q-0.65625 0 -1.4375 0.21875q-0.765625 0.21875 -1.234375 0.625l0 7.34375l1.703125 0.6875l0 0.390625l-5.125 0zm13.967957 0l0 -0.390625l1.5 -0.765625l0 -7.140625l-1.4375 -1.25l0 -0.171875l2.984375 -1.328125l0.140625 0l0.21875 1.78125l0.125 0q0.90625 -0.90625 1.75 -1.34375q0.859375 -0.4375 1.890625 -0.4375q1.421875 0 2.3125 0.71875q0.90625 0.703125 0.90625 2.09375l0 7.078125l1.515625 0.765625l0 0.390625l-5.140625 0l0 -0.390625l1.703125 -0.765625l0 -5.953125q0 -1.046875 -0.671875 -1.59375q-0.65625 -0.5625 -1.703125 -0.5625q-0.65625 0 -1.4375 0.21875q-0.765625 0.21875 -1.234375 0.625l0 7.265625l1.703125 0.765625l0 0.390625l-5.125 0zm19.296082 0.234375q-1.59375 0 -2.78125 -0.734375q-1.1875 -0.75 -1.84375 -2.015625q-0.65625 -1.28125 -0.65625 -2.890625q0 -1.609375 0.65625 -2.875q0.65625 -1.265625 1.84375 -2.015625q1.1875 -0.75 2.78125 -0.75q1.578125 0 2.765625 0.75q1.1875 0.75 1.84375 2.015625q0.671875 1.265625 0.671875 2.875q0 1.609375 -0.671875 2.890625q-0.65625 1.265625 -1.84375 2.015625q-1.1875 0.734375 -2.765625 0.734375zm0.328125 -1.03125q0.96875 0 1.59375 -0.59375q0.625 -0.59375 0.90625 -1.546875q0.28125 -0.953125 0.28125 -1.984375q0 -1.265625 -0.34375 -2.4375q-0.34375 -1.1875 -1.109375 -1.921875q-0.75 -0.75 -1.953125 -0.75q-0.984375 0 -1.609375 0.609375q-0.625 0.59375 -0.921875 1.53125q-0.296875 0.9375 -0.296875 1.984375q0 1.28125 0.359375 2.453125q0.359375 1.171875 1.125 1.921875q0.765625 0.734375 1.96875 0.734375zm7.209961 0.796875l0 -0.390625l1.5 -0.765625l0 -14.109375l-1.4375 -1.25l0 -0.171875l3.21875 -1.3125l0.140625 0l0 16.84375l1.515625 0.765625l0 0.390625l-4.9375 0zm12.4778595 0.234375q-1.59375 0 -2.78125 -0.734375q-1.1875 -0.75 -1.84375 -2.015625q-0.65625 -1.28125 -0.65625 -2.890625q0 -1.609375 0.65625 -2.875q0.65625 -1.265625 1.84375 -2.015625q1.1875 -0.75 2.78125 -0.75q1.578125 0 2.765625 0.75q1.1875 0.75 1.84375 2.015625q0.671875 1.265625 0.671875 2.875q0 1.609375 -0.671875 2.890625q-0.65625 1.265625 -1.84375 2.015625q-1.1875 0.734375 -2.765625 0.734375zm0.328125 -1.03125q0.96875 0 1.59375 -0.59375q0.625 -0.59375 0.90625 -1.546875q0.28125 -0.953125 0.28125 -1.984375q0 -1.265625 -0.34375 -2.4375q-0.34375 -1.1875 -1.109375 -1.921875q-0.75 -0.75 -1.953125 -0.75q-0.984375 0 -1.609375 0.609375q-0.625 0.59375 -0.921875 1.53125q-0.296875 0.9375 -0.296875 1.984375q0 1.28125 0.359375 2.453125q0.359375 1.171875 1.125 1.921875q0.765625 0.734375 1.96875 0.734375zm12.334961 -2.609375q-1.046875 0 -1.9375 -0.390625q-0.484375 0.203125 -0.6875 0.515625q-0.203125 0.3125 -0.203125 0.671875q0 1.1875 1.703125 1.1875l2.875 0q1.765625 0 2.59375 0.78125q0.828125 0.765625 0.828125 2.265625q0 1.03125 -0.6875 1.984375q-0.6875 0.953125 -1.953125 1.546875q-1.25 0.609375 -2.984375 0.609375q-2.28125 0 -3.28125 -0.828125q-0.984375 -0.828125 -0.984375 -2.03125q0 -0.890625 0.421875 -1.53125l1.65625 -1.109375l0 -0.09375q-0.90625 -0.203125 -1.390625 -0.71875q-0.46875 -0.515625 -0.46875 -1.25q0 -0.921875 0.609375 -1.546875l1.296875 -0.671875l0 -0.140625q-0.765625 -0.5 -1.21875 -1.28125q-0.453125 -0.796875 -0.453125 -1.78125q0 -1.078125 0.546875 -1.9375q0.5625 -0.875 1.53125 -1.375q0.96875 -0.515625 2.1875 -0.515625q0.515625 0 1.09375 0.125q0.59375 0.125 1.015625 0.3125l3.609375 -0.1875l0 1.296875l-2.234375 -0.140625l-0.09375 0.09375q0.375 0.421875 0.625 1.046875q0.265625 0.625 0.265625 1.28125q0 1.078125 -0.5625 1.9375q-0.546875 0.859375 -1.515625 1.375q-0.96875 0.5 -2.203125 0.5zm0.25 -0.984375q0.953125 0 1.5 -0.828125q0.5625 -0.828125 0.5625 -1.9375q0 -1.3125 -0.71875 -2.109375q-0.71875 -0.8125 -1.75 -0.8125q-1.046875 0 -1.59375 0.828125q-0.546875 0.828125 -0.546875 1.953125q0 1.25 0.71875 2.078125q0.71875 0.828125 1.828125 0.828125zm-3.265625 7.03125q0 1.0625 0.828125 1.75q0.828125 0.703125 2.03125 0.703125q1.078125 0 1.875 -0.421875q0.8125 -0.421875 1.25 -1.109375q0.4375 -0.6875 0.4375 -1.453125q0 -1.046875 -0.5625 -1.46875q-0.5625 -0.40625 -2.015625 -0.40625l-2.578125 0q-0.0625 0 -0.125 0q-0.640625 0.390625 -0.890625 0.96875q-0.25 0.59375 -0.25 1.4375zm13.635208 -16.578125q-0.625 0 -1.046875 -0.421875q-0.40625 -0.421875 -0.40625 -1.03125q0 -0.625 0.40625 -1.03125q0.421875 -0.40625 1.046875 -0.40625q0.609375 0 1.015625 0.40625q0.421875 0.40625 0.421875 1.03125q0 0.609375 -0.421875 1.03125q-0.40625 0.421875 -1.015625 0.421875zm-2.40625 13.9375l0 -0.390625l1.515625 -0.765625l0 -7.140625l-1.4375 -1.25l0 -0.171875l3.203125 -1.328125l0.15625 0l0 9.890625l1.5 0.765625l0 0.390625l-4.9375 0zm12.433853 0.234375q-2.328125 0 -3.671875 -1.40625q-1.34375 -1.421875 -1.34375 -3.75q0 -1.796875 0.703125 -3.171875q0.703125 -1.390625 1.859375 -2.171875q1.171875 -0.78125 2.546875 -0.78125q1.890625 0 2.984375 1.328125q1.09375 1.3125 1.09375 3.796875l-0.125 0.109375l-7.171875 0q0.03125 1.109375 0.4375 2.078125q0.40625 0.96875 1.296875 1.578125q0.90625 0.59375 2.421875 0.59375q1.3125 0 3.09375 -0.953125l0.078125 0l0 0.234375q-0.5625 1.03125 -1.65625 1.78125q-1.078125 0.734375 -2.546875 0.734375zm-0.296875 -10.21875q-1.140625 0 -1.875 0.8125q-0.734375 0.796875 -0.90625 2.265625l5.421875 0q-0.265625 -1.640625 -0.921875 -2.359375q-0.65625 -0.71875 -1.71875 -0.71875zm10.803467 10.21875q-1.125 0 -1.9375 -0.1875q-0.8125 -0.1875 -1.65625 -0.625l0 -2.6875l0.328125 0l0.765625 1.328125q0.75 1.3125 2.4375 1.3125q0.953125 0 1.484375 -0.453125q0.546875 -0.453125 0.546875 -1.25q0 -0.703125 -0.34375 -1.078125q-0.328125 -0.390625 -0.9375 -0.6875q-0.609375 -0.296875 -1.453125 -0.6875q-1.21875 -0.546875 -1.890625 -1.203125q-0.65625 -0.65625 -0.65625 -1.859375q0 -0.890625 0.5 -1.609375q0.515625 -0.71875 1.296875 -1.15625q0.78125 -0.4375 1.609375 -0.4375q0.890625 0 1.625 0.21875q0.75 0.21875 1.53125 0.609375l0 2.609375l-0.34375 0l-0.796875 -1.265625q-0.40625 -0.65625 -0.890625 -0.9375q-0.46875 -0.296875 -1.03125 -0.296875q-0.8125 0 -1.3125 0.421875q-0.484375 0.40625 -0.484375 1.125q0 0.8125 0.59375 1.234375q0.59375 0.421875 1.71875 0.9375q0.671875 0.34375 1.34375 0.6875q0.6875 0.328125 1.125 0.9375q0.453125 0.609375 0.453125 1.734375q0 1.0625 -0.578125 1.796875q-0.578125 0.734375 -1.421875 1.109375q-0.828125 0.359375 -1.625 0.359375zm15.008575 0q-1.140625 0 -1.890625 -0.65625q-0.734375 -0.65625 -0.734375 -1.828125q0 -1.1875 0.875 -2.046875q0.875 -0.859375 2.9375 -1.34375l2.28125 -0.53125l0 -1.75q0 -0.8125 -0.65625 -1.390625q-0.65625 -0.59375 -1.5 -0.59375q-0.90625 0 -1.265625 0.5q-0.359375 0.484375 -0.359375 1.296875l0 0.671875l-0.125 0.125l-1.25 0q-0.359375 0 -0.5 -0.125q-0.125 -0.125 -0.125 -0.546875q0 -0.53125 0.3125 -1.078125q0.3125 -0.5625 0.96875 -0.96875q0.671875 -0.4375 1.390625 -0.71875q0.734375 -0.296875 1.578125 -0.296875q0.84375 0 1.640625 0.25q0.8125 0.234375 1.3125 0.796875q0.5 0.5625 0.5 1.578125l0 6.8125q0.171875 0.171875 0.484375 0.296875q0.3125 0.109375 0.859375 0.109375l0.921875 0l0.0625 0.046875l0 0.078125q-0.28125 0.53125 -0.84375 0.921875q-0.5625 0.390625 -1.390625 0.390625q-0.734375 0 -1.203125 -0.390625q-0.46875 -0.390625 -0.65625 -1.046875l-0.15625 0q-0.625 0.625 -1.546875 1.03125q-0.921875 0.40625 -1.921875 0.40625zm-0.75 -2.96875q0 1.484375 1.796875 1.484375q0.578125 0 1.140625 -0.109375q0.5625 -0.125 1.28125 -0.4375l0 -3.5625q-1.921875 0.375 -2.8125 0.765625q-0.875 0.390625 -1.140625 0.859375q-0.265625 0.453125 -0.265625 1.0zm9.892212 2.734375l0 -0.390625l1.5 -0.765625l0 -7.140625l-1.4375 -1.25l0 -0.171875l2.984375 -1.328125l0.140625 0l0.21875 1.78125l0.125 0q0.90625 -0.90625 1.75 -1.34375q0.859375 -0.4375 1.890625 -0.4375q1.421875 0 2.3125 0.71875q0.90625 0.703125 0.90625 2.09375l0 7.078125l1.515625 0.765625l0 0.390625l-5.140625 0l0 -0.390625l1.703125 -0.765625l0 -5.953125q0 -1.046875 -0.671875 -1.59375q-0.65625 -0.5625 -1.703125 -0.5625q-0.65625 0 -1.4375 0.21875q-0.765625 0.21875 -1.234375 0.625l0 7.265625l1.703125 0.765625l0 0.390625l-5.125 0zm18.046082 0.234375q-1.203125 0 -2.15625 -0.59375q-0.9375 -0.59375 -1.484375 -1.6875q-0.53125 -1.09375 -0.53125 -2.609375q0 -2.046875 0.78125 -3.46875q0.796875 -1.421875 2.109375 -2.171875q1.328125 -0.75 2.890625 -0.75q0.671875 0 1.171875 0.0625q0.5 0.0625 0.90625 0.15625l0 -4.4375l-1.546875 -1.25l0 -0.171875l3.328125 -1.3125l0.140625 0l0 16.921875l1.703125 0.6875l0 0.390625l-3.375 0l-0.203125 -1.21875l-0.15625 0q-0.921875 0.765625 -1.78125 1.109375q-0.84375 0.34375 -1.796875 0.34375zm-2.265625 -5.4375q0 1.984375 1.0625 2.890625q1.0625 0.890625 2.515625 0.890625q0.578125 0 1.1875 -0.171875q0.625 -0.1875 1.1875 -0.546875l0 -6.71875q-0.5625 -0.5 -1.140625 -0.75q-0.5625 -0.25 -1.25 -0.25q-0.96875 0 -1.78125 0.46875q-0.796875 0.46875 -1.296875 1.484375q-0.484375 1.015625 -0.484375 2.703125zm18.13469 5.203125l0 -0.390625l1.90625 -0.953125l0 -13.15625l-1.90625 -0.953125l0 -0.390625l6.0 0l0 0.390625l-1.921875 0.953125l0 13.15625l1.921875 0.953125l0 0.390625l-6.0 0zm8.82872 0l0 -0.390625l1.5 -0.765625l0 -7.140625l-1.4375 -1.25l0 -0.171875l2.984375 -1.328125l0.140625 0l0.21875 1.78125l0.125 0q0.90625 -0.90625 1.75 -1.34375q0.859375 -0.4375 1.890625 -0.4375q1.421875 0 2.3125 0.71875q0.90625 0.703125 0.90625 2.09375l0 7.078125l1.515625 0.765625l0 0.390625l-5.140625 0l0 -0.390625l1.703125 -0.765625l0 -5.953125q0 -1.046875 -0.671875 -1.59375q-0.65625 -0.5625 -1.703125 -0.5625q-0.65625 0 -1.4375 0.21875q-0.765625 0.21875 -1.234375 0.625l0 7.265625l1.703125 0.765625l0 0.390625l-5.125 0zm17.796082 0.234375q-1.046875 0 -1.8125 -0.625q-0.765625 -0.625 -0.765625 -1.75l0 -7.53125l-1.96875 0l0 -0.140625l2.03125 -0.984375l1.703125 -2.640625l0.140625 0l0 2.640625l3.171875 0l0 1.125l-3.171875 0l0 7.125q0 0.625 0.546875 0.921875q0.5625 0.28125 1.3125 0.28125q0.453125 0 0.84375 -0.046875q0.40625 -0.046875 0.6875 -0.125l0.078125 0l0 0.25q-0.25 0.546875 -0.953125 1.03125q-0.703125 0.46875 -1.84375 0.46875zm9.730347 0q-2.328125 0 -3.671875 -1.40625q-1.34375 -1.421875 -1.34375 -3.75q0 -1.796875 0.703125 -3.171875q0.703125 -1.390625 1.859375 -2.171875q1.171875 -0.78125 2.546875 -0.78125q1.890625 0 2.984375 1.328125q1.09375 1.3125 1.09375 3.796875l-0.125 0.109375l-7.171875 0q0.03125 1.109375 0.4375 2.078125q0.40625 0.96875 1.296875 1.578125q0.90625 0.59375 2.421875 0.59375q1.3125 0 3.09375 -0.953125l0.078125 0l0 0.234375q-0.5625 1.03125 -1.65625 1.78125q-1.078125 0.734375 -2.546875 0.734375zm-0.296875 -10.21875q-1.140625 0 -1.875 0.8125q-0.734375 0.796875 -0.90625 2.265625l5.421875 0q-0.265625 -1.640625 -0.921875 -2.359375q-0.65625 -0.71875 -1.71875 -0.71875zm6.756592 9.984375l0 -0.390625l1.5 -0.765625l0 -14.109375l-1.4375 -1.25l0 -0.171875l3.21875 -1.3125l0.140625 0l0 16.84375l1.515625 0.765625l0 0.390625l-4.9375 0zm7.0559845 0l0 -0.390625l1.5 -0.765625l0 -14.109375l-1.4375 -1.25l0 -0.171875l3.21875 -1.3125l0.140625 0l0 16.84375l1.515625 0.765625l0 0.390625l-4.9375 0zm9.696594 -13.9375q-0.625 0 -1.046875 -0.421875q-0.40625 -0.421875 -0.40625 -1.03125q0 -0.625 0.40625 -1.03125q0.421875 -0.40625 1.046875 -0.40625q0.609375 0 1.015625 0.40625q0.421875 0.40625 0.421875 1.03125q0 0.609375 -0.421875 1.03125q-0.40625 0.421875 -1.015625 0.421875zm-2.40625 13.9375l0 -0.390625l1.515625 -0.765625l0 -7.140625l-1.4375 -1.25l0 -0.171875l3.203125 -1.328125l0.15625 0l0 9.890625l1.5 0.765625l0 0.390625l-4.9375 0zm12.402618 -3.40625q-1.046875 0 -1.9375 -0.390625q-0.484375 0.203125 -0.6875 0.515625q-0.203125 0.3125 -0.203125 0.671875q0 1.1875 1.703125 1.1875l2.875 0q1.765625 0 2.59375 0.78125q0.828125 0.765625 0.828125 2.265625q0 1.03125 -0.6875 1.984375q-0.6875 0.953125 -1.953125 1.546875q-1.25 0.609375 -2.984375 0.609375q-2.28125 0 -3.28125 -0.828125q-0.984375 -0.828125 -0.984375 -2.03125q0 -0.890625 0.421875 -1.53125l1.65625 -1.109375l0 -0.09375q-0.90625 -0.203125 -1.390625 -0.71875q-0.46875 -0.515625 -0.46875 -1.25q0 -0.921875 0.609375 -1.546875l1.296875 -0.671875l0 -0.140625q-0.765625 -0.5 -1.21875 -1.28125q-0.453125 -0.796875 -0.453125 -1.78125q0 -1.078125 0.546875 -1.9375q0.5625 -0.875 1.53125 -1.375q0.96875 -0.515625 2.1875 -0.515625q0.515625 0 1.09375 0.125q0.59375 0.125 1.015625 0.3125l3.609375 -0.1875l0 1.296875l-2.234375 -0.140625l-0.09375 0.09375q0.375 0.421875 0.625 1.046875q0.265625 0.625 0.265625 1.28125q0 1.078125 -0.5625 1.9375q-0.546875 0.859375 -1.515625 1.375q-0.96875 0.5 -2.203125 0.5zm0.25 -0.984375q0.953125 0 1.5 -0.828125q0.5625 -0.828125 0.5625 -1.9375q0 -1.3125 -0.71875 -2.109375q-0.71875 -0.8125 -1.75 -0.8125q-1.046875 0 -1.59375 0.828125q-0.546875 0.828125 -0.546875 1.953125q0 1.25 0.71875 2.078125q0.71875 0.828125 1.828125 0.828125zm-3.265625 7.03125q0 1.0625 0.828125 1.75q0.828125 0.703125 2.03125 0.703125q1.078125 0 1.875 -0.421875q0.8125 -0.421875 1.25 -1.109375q0.4375 -0.6875 0.4375 -1.453125q0 -1.046875 -0.5625 -1.46875q-0.5625 -0.40625 -2.015625 -0.40625l-2.578125 0q-0.0625 0 -0.125 0q-0.640625 0.390625 -0.890625 0.96875q-0.25 0.59375 -0.25 1.4375zm15.910828 -2.40625q-2.328125 0 -3.671875 -1.40625q-1.34375 -1.421875 -1.34375 -3.75q0 -1.796875 0.703125 -3.171875q0.703125 -1.390625 1.859375 -2.171875q1.171875 -0.78125 2.546875 -0.78125q1.890625 0 2.984375 1.328125q1.09375 1.3125 1.09375 3.796875l-0.125 0.109375l-7.171875 0q0.03125 1.109375 0.4375 2.078125q0.40625 0.96875 1.296875 1.578125q0.90625 0.59375 2.421875 0.59375q1.3125 0 3.09375 -0.953125l0.078125 0l0 0.234375q-0.5625 1.03125 -1.65625 1.78125q-1.078125 0.734375 -2.546875 0.734375zm-0.296875 -10.21875q-1.140625 0 -1.875 0.8125q-0.734375 0.796875 -0.90625 2.265625l5.421875 0q-0.265625 -1.640625 -0.921875 -2.359375q-0.65625 -0.71875 -1.71875 -0.71875zm6.850342 9.984375l0 -0.390625l1.5 -0.765625l0 -7.140625l-1.4375 -1.25l0 -0.171875l2.984375 -1.328125l0.140625 0l0.21875 1.78125l0.125 0q0.90625 -0.90625 1.75 -1.34375q0.859375 -0.4375 1.890625 -0.4375q1.421875 0 2.3125 0.71875q0.90625 0.703125 0.90625 2.09375l0 7.078125l1.515625 0.765625l0 0.390625l-5.140625 0l0 -0.390625l1.703125 -0.765625l0 -5.953125q0 -1.046875 -0.671875 -1.59375q-0.65625 -0.5625 -1.703125 -0.5625q-0.65625 0 -1.4375 0.21875q-0.765625 0.21875 -1.234375 0.625l0 7.265625l1.703125 0.765625l0 0.390625l-5.125 0zm19.030457 0.234375q-2.328125 0 -3.671875 -1.40625q-1.34375 -1.421875 -1.34375 -3.75q0 -1.796875 0.71875 -3.171875q0.734375 -1.390625 1.984375 -2.171875q1.25 -0.78125 2.8125 -0.78125q0.96875 0 1.875 0.328125q0.90625 0.328125 1.390625 0.859375q0.390625 0.453125 0.390625 0.71875q0 0.328125 -0.3125 0.578125l-0.921875 0.765625l-0.171875 0l-0.8125 -1.109375q-0.359375 -0.484375 -0.90625 -0.78125q-0.53125 -0.296875 -1.328125 -0.296875q-1.3125 0 -2.078125 1.046875q-0.75 1.046875 -0.75 2.90625q0 1.15625 0.375 2.1875q0.390625 1.015625 1.28125 1.65625q0.90625 0.625 2.5 0.625q1.3125 0 3.09375 -0.953125l0.078125 0l0 0.234375q-0.5625 1.03125 -1.65625 1.78125q-1.078125 0.734375 -2.546875 0.734375zm11.495972 0q-2.328125 0 -3.671875 -1.40625q-1.34375 -1.421875 -1.34375 -3.75q0 -1.796875 0.703125 -3.171875q0.703125 -1.390625 1.859375 -2.171875q1.171875 -0.78125 2.546875 -0.78125q1.890625 0 2.984375 1.328125q1.09375 1.3125 1.09375 3.796875l-0.125 0.109375l-7.171875 0q0.03125 1.109375 0.4375 2.078125q0.40625 0.96875 1.296875 1.578125q0.90625 0.59375 2.421875 0.59375q1.3125 0 3.09375 -0.953125l0.078125 0l0 0.234375q-0.5625 1.03125 -1.65625 1.78125q-1.078125 0.734375 -2.546875 0.734375zm-0.296875 -10.21875q-1.140625 0 -1.875 0.8125q-0.734375 0.796875 -0.90625 2.265625l5.421875 0q-0.265625 -1.640625 -0.921875 -2.359375q-0.65625 -0.71875 -1.71875 -0.71875zm38.69406 10.109375q-0.59375 0 -1.03125 -0.4375q-0.4375 -0.4375 -0.4375 -1.03125q0 -0.59375 0.4375 -1.03125q0.4375 -0.4375 1.03125 -0.4375q0.59375 0 1.03125 0.4375q0.4375 0.4375 0.4375 1.03125q0 0.59375 -0.4375 1.03125q-0.4375 0.4375 -1.03125 0.4375zm0 -8.0q-0.59375 0 -1.03125 -0.4375q-0.4375 -0.4375 -0.4375 -1.03125q0 -0.59375 0.4375 -1.03125q0.4375 -0.4375 1.03125 -0.4375q0.59375 0 1.03125 0.4375q0.4375 0.4375 0.4375 1.03125q0 0.59375 -0.4375 1.03125q-0.4375 0.4375 -1.03125 0.4375zm3.0 10.75l4.796875 -20.875l1.203125 0l-4.796875 20.875l-1.203125 0zm6.0 0l4.796875 -20.875l1.203125 0l-4.796875 20.875l-1.203125 0zm7.15625 -2.875l0 -0.390625l1.5 -0.765625l0 -14.109375l-1.4375 -1.25l0 -0.171875l3.21875 -1.3125l0.140625 0l0 8.734375l0.109375 0q0.90625 -0.90625 1.75 -1.34375q0.859375 -0.4375 1.890625 -0.4375q1.421875 0 2.3125 0.71875q0.90625 0.703125 0.90625 2.09375l0 7.078125l1.515625 0.765625l0 0.390625l-5.140625 0l0 -0.390625l1.703125 -0.6875l0 -6.03125q0 -1.046875 -0.671875 -1.59375q-0.65625 -0.5625 -1.703125 -0.5625q-0.65625 0 -1.4375 0.21875q-0.765625 0.21875 -1.234375 0.625l0 7.34375l1.703125 0.6875l0 0.390625l-5.125 0zm19.296082 0.234375q-1.59375 0 -2.78125 -0.734375q-1.1875 -0.75 -1.84375 -2.015625q-0.65625 -1.28125 -0.65625 -2.890625q0 -1.609375 0.65625 -2.875q0.65625 -1.265625 1.84375 -2.015625q1.1875 -0.75 2.78125 -0.75q1.578125 0 2.765625 0.75q1.1875 0.75 1.84375 2.015625q0.671875 1.265625 0.671875 2.875q0 1.609375 -0.671875 2.890625q-0.65625 1.265625 -1.84375 2.015625q-1.1875 0.734375 -2.765625 0.734375zm0.328125 -1.03125q0.96875 0 1.59375 -0.59375q0.625 -0.59375 0.90625 -1.546875q0.28125 -0.953125 0.28125 -1.984375q0 -1.265625 -0.34375 -2.4375q-0.34375 -1.1875 -1.109375 -1.921875q-0.75 -0.75 -1.953125 -0.75q-0.984375 0 -1.609375 0.609375q-0.625 0.59375 -0.921875 1.53125q-0.296875 0.9375 -0.296875 1.984375q0 1.28125 0.359375 2.453125q0.359375 1.171875 1.125 1.921875q0.765625 0.734375 1.96875 0.734375zm7.303711 0.796875l0 -0.390625l1.5 -0.765625l0 -14.109375l-1.4375 -1.25l0 -0.171875l3.21875 -1.3125l0.140625 0l0 11.875l3.875 -3.28125l0 -0.140625l-1.1875 -0.875l0 -0.375l4.5625 0l0 0.375l-1.53125 0.84375l-3.953125 3.046875l4.84375 5.328125l1.53125 0.8125l0 0.390625l-3.171875 0l-0.90625 -1.25l-4.0625 -4.515625l0 4.6875l1.703125 0.6875l0 0.390625l-5.125 0zm17.401978 0.234375q-1.421875 0 -2.328125 -0.703125q-0.890625 -0.703125 -0.890625 -2.09375l0 -7.109375l-1.515625 -0.75l0 -0.375l3.4375 0l0 7.09375q0 1.0625 0.65625 1.625q0.65625 0.546875 1.71875 0.546875q0.640625 0 1.421875 -0.21875q0.78125 -0.21875 1.234375 -0.625l0 -7.296875l-1.703125 -0.75l0 -0.375l3.625 0l0 9.71875l1.703125 0.6875l0 0.390625l-3.625 0l0 -1.515625l-0.109375 0q-0.921875 0.921875 -1.78125 1.34375q-0.84375 0.40625 -1.84375 0.40625zm14.542084 0q-1.59375 0 -2.78125 -0.734375q-1.1875 -0.75 -1.84375 -2.015625q-0.65625 -1.28125 -0.65625 -2.890625q0 -1.609375 0.65625 -2.875q0.65625 -1.265625 1.84375 -2.015625q1.1875 -0.75 2.78125 -0.75q1.578125 0 2.765625 0.75q1.1875 0.75 1.84375 2.015625q0.671875 1.265625 0.671875 2.875q0 1.609375 -0.671875 2.890625q-0.65625 1.265625 -1.84375 2.015625q-1.1875 0.734375 -2.765625 0.734375zm0.328125 -1.03125q0.96875 0 1.59375 -0.59375q0.625 -0.59375 0.90625 -1.546875q0.28125 -0.953125 0.28125 -1.984375q0 -1.265625 -0.34375 -2.4375q-0.34375 -1.1875 -1.109375 -1.921875q-0.75 -0.75 -1.953125 -0.75q-0.984375 0 -1.609375 0.609375q-0.625 0.59375 -0.921875 1.53125q-0.296875 0.9375 -0.296875 1.984375q0 1.28125 0.359375 2.453125q0.359375 1.171875 1.125 1.921875q0.765625 0.734375 1.96875 0.734375zm7.303711 0.796875l0 -0.390625l1.5 -0.765625l0 -7.140625l-1.4375 -1.25l0 -0.171875l2.984375 -1.328125l0.140625 0l0.21875 1.78125l0.125 0q0.90625 -0.90625 1.75 -1.34375q0.859375 -0.4375 1.890625 -0.4375q1.421875 0 2.3125 0.71875q0.90625 0.703125 0.90625 2.09375l0 7.078125l1.515625 0.765625l0 0.390625l-5.140625 0l0 -0.390625l1.703125 -0.765625l0 -5.953125q0 -1.046875 -0.671875 -1.59375q-0.65625 -0.5625 -1.703125 -0.5625q-0.65625 0 -1.4375 0.21875q-0.765625 0.21875 -1.234375 0.625l0 7.265625l1.703125 0.765625l0 0.390625l-5.125 0zm15.811707 0.125q-0.59375 0 -1.03125 -0.4375q-0.4375 -0.4375 -0.4375 -1.03125q0 -0.59375 0.4375 -1.03125q0.4375 -0.4375 1.03125 -0.4375q0.59375 0 1.03125 0.4375q0.4375 0.4375 0.4375 1.03125q0 0.59375 -0.4375 1.03125q-0.4375 0.4375 -1.03125 0.4375zm8.978729 0.109375q-2.328125 0 -3.671875 -1.40625q-1.34375 -1.421875 -1.34375 -3.75q0 -1.796875 0.71875 -3.171875q0.734375 -1.390625 1.984375 -2.171875q1.25 -0.78125 2.8125 -0.78125q0.96875 0 1.875 0.328125q0.90625 0.328125 1.390625 0.859375q0.390625 0.453125 0.390625 0.71875q0 0.328125 -0.3125 0.578125l-0.921875 0.765625l-0.171875 0l-0.8125 -1.109375q-0.359375 -0.484375 -0.90625 -0.78125q-0.53125 -0.296875 -1.328125 -0.296875q-1.3125 0 -2.078125 1.046875q-0.75 1.046875 -0.75 2.90625q0 1.15625 0.375 2.1875q0.390625 1.015625 1.28125 1.65625q0.90625 0.625 2.5 0.625q1.3125 0 3.09375 -0.953125l0.078125 0l0 0.234375q-0.5625 1.03125 -1.65625 1.78125q-1.078125 0.734375 -2.546875 0.734375zm11.761597 0q-1.59375 0 -2.78125 -0.734375q-1.1875 -0.75 -1.84375 -2.015625q-0.65625 -1.28125 -0.65625 -2.890625q0 -1.609375 0.65625 -2.875q0.65625 -1.265625 1.84375 -2.015625q1.1875 -0.75 2.78125 -0.75q1.578125 0 2.765625 0.75q1.1875 0.75 1.84375 2.015625q0.671875 1.265625 0.671875 2.875q0 1.609375 -0.671875 2.890625q-0.65625 1.265625 -1.84375 2.015625q-1.1875 0.734375 -2.765625 0.734375zm0.328125 -1.03125q0.96875 0 1.59375 -0.59375q0.625 -0.59375 0.90625 -1.546875q0.28125 -0.953125 0.28125 -1.984375q0 -1.265625 -0.34375 -2.4375q-0.34375 -1.1875 -1.109375 -1.921875q-0.75 -0.75 -1.953125 -0.75q-0.984375 0 -1.609375 0.609375q-0.625 0.59375 -0.921875 1.53125q-0.296875 0.9375 -0.296875 1.984375q0 1.28125 0.359375 2.453125q0.359375 1.171875 1.125 1.921875q0.765625 0.734375 1.96875 0.734375z" fill-rule="nonzero"/></g></svg>